<svg xmlns="http://www.w3.org/2000/svg" version="1.1" xmlns:xlink="http://www.w3.org/1999/xlink" xmlns:svgjs="http://svgjs.com/svgjs" width="16" height="16"><svg xmlns="http://www.w3.org/2000/svg" viewBox="0 0 16 16" width="16" height="16" fill="context-fill" fill-opacity="context-fill-opacity">
  <path d="M8.25 6.938a.625.625 0 0 0-1.25 0l0 4.438a.625.625 0 0 0 1.25-.001l0-4.437z"></path>
  <path d="m8 4-.75 0-.25.25L7 5l.25.25.75 0L8.25 5l0-.75z"></path>
  <path d="M7.625 1.75c3.446 0 6.25 2.804 6.25 6.25s-2.804 6.25-6.25 6.25-6.25-2.804-6.25-6.25 2.804-6.25 6.25-6.25m0-1.25a7.5 7.5 0 1 0 0 15 7.5 7.5 0 0 0 0-15z"></path>
</svg><style>@media (prefers-color-scheme: light) { :root { filter: none; } }
@media (prefers-color-scheme: dark) { :root { filter: invert(100%); } }
</style></svg>